<svg width="84" height="84" viewBox="0 0 84 84" fill="none" xmlns="http://www.w3.org/2000/svg">
<path fill-rule="evenodd" clip-rule="evenodd" d="M47.8712 69.2137C44.1611 71.0243 39.8393 71.0243 36.1292 69.2137L24.068 63.3276C20.3579 61.517 17.6633 58.0929 16.747 54.0245L13.7681 40.7987C12.8518 36.7303 13.8135 32.4605 16.3809 29.1979L24.7275 18.5915C27.295 15.329 31.1888 13.4287 35.3067 13.4287H48.6936C52.8115 13.4287 56.7054 15.329 59.2728 18.5915L67.6194 29.1979C70.1869 32.4605 71.1486 36.7303 70.2323 40.7987L67.2534 54.0245C66.3371 58.0929 63.6425 61.517 59.9324 63.3276L47.8712 69.2137ZM30.7507 50.7383C30.0167 52.3348 31.6649 53.983 33.2614 53.249L41.2088 49.595C41.7107 49.3643 42.2884 49.3643 42.7903 49.595L50.7376 53.249C52.3342 53.983 53.9824 52.3348 53.2483 50.7383L49.5944 42.791C49.3636 42.289 49.3636 41.7113 49.5944 41.2094L53.2483 33.2621C53.9824 31.6655 52.3342 30.0173 50.7376 30.7514L42.7903 34.4053C42.2884 34.6361 41.7107 34.6361 41.2088 34.4053L33.2614 30.7514C31.6649 30.0173 30.0167 31.6655 30.7507 33.2621L34.4047 41.2094C34.6354 41.7113 34.6354 42.289 34.4047 42.791L30.7507 50.7383Z" fill="#0B062A"/>
<path d="M2 70.5715V78.0001C2 80.2093 3.79086 82.0001 6 82.0001H13.4286" stroke="#0B062A" stroke-opacity="0.16" stroke-width="4" stroke-linecap="round" stroke-linejoin="round"/>
<path d="M82 70.5715V78.0001C82 80.2093 80.2091 82.0001 78 82.0001H70.5714" stroke="#0B062A" stroke-opacity="0.16" stroke-width="4" stroke-linecap="round" stroke-linejoin="round"/>
<path d="M2 13.4287V6.00012C2 3.79098 3.79086 2.00012 6 2.00012H13.4286" stroke="#0B062A" stroke-opacity="0.16" stroke-width="4" stroke-linecap="round" stroke-linejoin="round"/>
<path d="M82 13.4287V6.00012C82 3.79098 80.2091 2.00012 78 2.00012H70.5714" stroke="#0B062A" stroke-opacity="0.16" stroke-width="4" stroke-linecap="round" stroke-linejoin="round"/>
</svg>
